<?xml version="1.0" encoding="UTF-8"?>
<svg width="29px" height="29px" viewBox="0 0 29 29" version="1.1" xmlns="http://www.w3.org/2000/svg" xmlns:xlink="http://www.w3.org/1999/xlink">
    <!-- Generator: Sketch 58 (84663) - https://sketch.com -->
    <title>Combined Shape</title>
    <desc>Created with Sketch.</desc>
    <g id="Terms-and-policy" stroke="none" stroke-width="1" fill="none" fill-rule="evenodd">
        <g id="Form-resume" transform="translate(-1352.000000, -60.000000)" fill="#FFFFFF">
            <path d="M1380.0165,60.4393398 C1380.60229,61.0251263 1380.60229,61.9748737 1380.0165,62.5606602 L1368.349,74.228 L1380.0165,85.895184 C1380.60229,86.4809704 1380.60229,87.4307179 1380.0165,88.0165043 C1379.43072,88.6022907 1378.48097,88.6022907 1377.89518,88.0165043 L1366.228,76.349 L1354.56066,88.0165043 C1353.97487,88.6022907 1353.02513,88.6022907 1352.43934,88.0165043 C1351.85355,87.4307179 1351.85355,86.4809704 1352.43934,85.895184 L1364.107,74.228 L1352.43934,62.5606602 C1351.85355,61.9748737 1351.85355,61.0251263 1352.43934,60.4393398 C1353.02513,59.8535534 1353.97487,59.8535534 1354.56066,60.4393398 L1366.228,72.107 L1377.89518,60.4393398 C1378.48097,59.8535534 1379.43072,59.8535534 1380.0165,60.4393398 Z" id="Combined-Shape"></path>
        </g>
    </g>
</svg>