<?xml version="1.0" encoding="UTF-8"?>
<svg width="14px" height="9px" viewBox="0 0 14 9" version="1.1" xmlns="http://www.w3.org/2000/svg" xmlns:xlink="http://www.w3.org/1999/xlink">
    <!-- Generator: Sketch 58 (84663) - https://sketch.com -->
    <title>Shape-Copy-7</title>
    <desc>Created with Sketch.</desc>
    <g id="All-pages" stroke="none" stroke-width="1" fill="none" fill-rule="evenodd">
        <g id="Вакансии-320" transform="translate(-121.000000, -452.000000)" fill="#5994FF" fill-rule="nonzero" stroke="#5994FF">
            <g id="card-copy" transform="translate(16.000000, 227.000000)">
                <g id="more" transform="translate(20.000000, 220.000000)">
                    <path d="M97.860657,6.81410463 L92.39051,12.7833707 C92.373499,12.8084085 92.379253,12.841208 92.357238,12.8634917 C92.258422,12.9626415 92.127585,13.0054561 91.998249,12.999447 C91.870163,13.0044546 91.741077,12.9611392 91.643012,12.8632413 C91.621247,12.841208 91.627251,12.8089093 91.61049,12.7846226 L86.139593,6.81510615 C85.953469,6.62857441 85.953469,6.32686871 86.139593,6.14033697 C86.325717,5.95430598 86.627168,5.95430598 86.813542,6.14033697 L91.9995,11.7996348 L97.186207,6.14008659 C97.372331,5.95330447 97.674033,5.95330447 97.860157,6.14008659 C98.046531,6.32586719 98.046531,6.62782327 97.860657,6.81410463 Z" id="Shape-Copy-7"></path>
                </g>
            </g>
        </g>
    </g>
</svg>